<svg width="26" height="26" viewBox="0 0 26 26" fill="none" xmlns="http://www.w3.org/2000/svg">
<g clip-path="url(#clip0_606_954)">
<path d="M25.2203 15.8502L22.8305 13.9815C22.8619 13.6933 22.8868 13.3564 22.8868 13C22.8868 12.6436 22.8608 12.3067 22.8305 12.0185L25.2225 10.1487C25.6667 9.79768 25.7891 9.17475 25.5053 8.65587L23.0201 4.35612C22.7481 3.86105 22.1383 3.63462 21.5825 3.83937L18.7626 4.97143C18.2231 4.58143 17.6565 4.25212 17.0704 3.98887L16.6414 0.997801C16.571 0.429 16.077 0 15.4931 0H10.5098C9.92583 0 9.43183 0.429 9.36251 0.986934L8.93244 3.98887C8.36476 4.24562 7.80688 4.56955 7.24244 4.97255L4.41494 3.83723C3.87438 3.62598 3.25901 3.84917 2.98819 4.3453L0.49976 8.65155C0.206193 9.14773 0.326443 9.79123 0.781443 10.1509L3.17126 12.0186C3.13333 12.3847 3.11494 12.7021 3.11494 13.0001C3.11494 13.298 3.13338 13.6154 3.16913 13.9816L0.777127 15.8525C0.33401 16.2034 0.212642 16.8263 0.495392 17.3452L2.98058 21.645C3.25033 22.139 3.85914 22.3643 4.41814 22.1617L7.23807 21.0297C7.77758 21.4186 8.34526 21.7479 8.93132 22.0122L9.36032 25.0022C9.43076 25.571 9.92476 26 10.5086 26H15.492C16.0759 26 16.5699 25.571 16.6392 25.0131L17.0693 22.0122C17.637 21.7555 18.1948 21.4316 18.7593 21.0286L21.5868 22.1639C22.1252 22.3729 22.7427 22.1519 23.0135 21.6558L25.5117 17.3344C25.788 16.8274 25.6666 16.2045 25.2203 15.8502ZM24.5649 16.8036L21.9844 21.1564L18.8828 19.9106C18.7073 19.8401 18.508 19.8673 18.3563 19.9799C17.6846 20.4826 17.0358 20.8606 16.3706 21.1326C16.1929 21.2051 16.0661 21.3666 16.0391 21.5572L15.492 24.9167L10.4361 24.8593L9.96264 21.5583C9.93446 21.3676 9.80882 21.2063 9.63114 21.1336C8.93889 20.8498 8.27264 20.4631 7.64971 19.9842C7.55327 19.9094 7.43627 19.8715 7.31927 19.8715C7.25102 19.8715 7.18277 19.8834 7.11671 19.9105L3.92628 21.1141L1.44109 16.8143C1.41834 16.7721 1.42266 16.7233 1.44866 16.7028L4.07791 14.6477C4.22741 14.5307 4.30541 14.3422 4.28159 14.1537C4.22416 13.6998 4.19816 13.3325 4.19816 12.9999C4.19816 12.6674 4.22522 12.3012 4.28159 11.8462C4.30541 11.6566 4.22741 11.4692 4.07791 11.3522L1.43576 9.1975L4.01626 4.84468L7.11783 6.0905C7.29439 6.162 7.49264 6.13493 7.64539 6.02118C8.31596 5.51743 8.96596 5.14043 9.63114 4.8685C9.80882 4.79482 9.93446 4.63343 9.96157 4.44382L10.5098 1.08332L15.5668 1.14182L16.0391 4.44382C16.0673 4.6345 16.1929 4.79588 16.3706 4.8685C17.0618 5.15125 17.728 5.538 18.352 6.01793C18.5048 6.13493 18.7052 6.16312 18.8839 6.0905L22.0744 4.88693L24.5596 9.18668C24.5823 9.22893 24.578 9.27662 24.552 9.29718L21.9227 11.3523C21.7732 11.4692 21.6952 11.6567 21.7191 11.8462C21.7602 12.1756 21.8025 12.571 21.8025 13C21.8025 13.4301 21.7602 13.8244 21.7191 14.1538C21.6952 14.3422 21.7732 14.5308 21.9227 14.6477L24.5487 16.7017C24.5768 16.7245 24.5823 16.7733 24.5649 16.8036Z" fill="#302929"/>
<path d="M13.0007 7.58337C10.0139 7.58337 7.58398 10.0133 7.58398 13.0001C7.58398 15.9868 10.0139 18.4167 13.0007 18.4167C15.9874 18.4167 18.4174 15.9868 18.4174 13.0001C18.4174 10.0133 15.9874 7.58337 13.0007 7.58337ZM13.0007 17.3334C10.6109 17.3334 8.66735 15.3899 8.66735 13.0001C8.66735 10.6102 10.6109 8.66674 13.0007 8.66674C15.3905 8.66674 17.334 10.6102 17.334 13.0001C17.334 15.3899 15.3905 17.3334 13.0007 17.3334Z" fill="#302929"/>
</g>
<defs>
<clipPath id="clip0_606_954">
<rect width="26" height="26" fill="white"/>
</clipPath>
</defs>
</svg>
