<svg width="25" height="25" viewBox="0 0 25 25" fill="none" xmlns="http://www.w3.org/2000/svg">
<g clip-path="url(#clip0_606_975)">
<path d="M17.957 20.6156C17.957 20.6133 17.957 20.6109 17.957 20.6086L17.3238 18.0746C17.3103 18.0235 17.2932 17.9734 17.2727 17.9246C17.6829 17.8159 18.0017 17.4929 18.1051 17.0813L18.7383 14.5477C18.7383 14.5453 18.7383 14.543 18.7383 14.5406C18.7404 14.4823 18.7404 14.4239 18.7383 14.3656C18.7383 14.3633 18.7383 14.3609 18.7383 14.3586L18.1051 11.8246C17.9744 11.3029 17.5054 10.9372 16.9676 10.9375H3.34415C2.80636 10.9374 2.33756 11.3033 2.20704 11.825L1.57384 14.3586V14.3656C1.57174 14.4239 1.57174 14.4823 1.57384 14.5406V14.5477L2.20704 17.0816C2.22062 17.1328 2.23771 17.1829 2.25822 17.2316C1.84796 17.3404 1.52916 17.6634 1.42579 18.075L0.79259 20.6086V20.6156C0.790491 20.6739 0.790491 20.7323 0.79259 20.7906V20.7977L1.42579 23.3316C1.55646 23.8532 2.02526 24.2189 2.5629 24.2188H16.1863C16.7241 24.2188 17.1929 23.8529 17.3234 23.3313L17.9567 20.7977C17.9567 20.7953 17.9567 20.793 17.9567 20.7906C17.9588 20.7323 17.9588 20.6739 17.9567 20.6156H17.957ZM13.1953 20.3125L12.6359 18.0746C12.6256 18.0387 12.6135 18.0034 12.5996 17.9688H16.1863C16.3656 17.9686 16.5221 18.0905 16.5656 18.2645L17.0774 20.3125H13.1953ZM2.96486 16.8918L2.45314 14.8438H13.1711L12.6594 16.8914C12.616 17.0655 12.4595 17.1876 12.2801 17.1875H3.34415C3.16486 17.1877 3.00841 17.0657 2.96486 16.8918ZM17.3469 16.8918C17.3035 17.0659 17.147 17.188 16.9676 17.1879H13.3809C13.3934 17.1527 13.4078 17.1184 13.4172 17.0816L13.9766 14.8438H17.8586L17.3469 16.8918ZM17.3469 12.0148L17.8586 14.0625H13.9766L13.4172 11.8246C13.4069 11.7887 13.3948 11.7534 13.3809 11.7188H16.9676C17.1469 11.7186 17.3033 11.8405 17.3469 12.0145V12.0148ZM2.96486 12.0148C3.00826 11.8407 3.16471 11.7186 3.34415 11.7188H12.2801C12.4594 11.7186 12.6158 11.8405 12.6594 12.0145L13.1711 14.0625H9.37462C9.37462 13.8468 9.19972 13.6719 8.984 13.6719H6.64025C6.42452 13.6719 6.24962 13.8468 6.24962 14.0625H2.45314L2.96486 12.0148ZM2.18361 18.2648C2.22701 18.0907 2.38346 17.9686 2.5629 17.9688H11.4988C11.6781 17.9686 11.8346 18.0905 11.8781 18.2645L12.3899 20.3125H8.59337C8.59337 20.0968 8.41847 19.9219 8.20275 19.9219H5.859C5.64327 19.9219 5.46837 20.0968 5.46837 20.3125H1.67189L2.18361 18.2648ZM10.1559 23.4375H2.5629C2.38361 23.4377 2.22716 23.3157 2.18361 23.1418L1.67189 21.0938H12.3899L11.8781 23.1414C11.8347 23.3155 11.6783 23.4376 11.4988 23.4375H10.1559ZM16.5656 23.1414C16.5222 23.3155 16.3658 23.4376 16.1863 23.4375H12.5996C12.6121 23.4023 12.6266 23.368 12.6359 23.3313L13.1953 21.0938H17.0774L16.5656 23.1414Z" fill="#302929"/>
<path d="M8.20312 2.73438V6.25001H4.29688C4.08115 6.25001 3.90625 6.42491 3.90625 6.64063V10.1563H4.6875V7.03126H19.5312V23.4375H17.9688V24.2188H23.8281C24.0423 24.2203 24.2172 24.0479 24.2188 23.8336C24.2188 23.8318 24.2188 23.8299 24.2188 23.8281V6.64063C24.2188 6.42491 24.0438 6.25001 23.8281 6.25001H21.4844V3.51563C21.4852 3.49239 21.4838 3.4605 21.4749 3.42403C21.4665 3.3899 21.4541 3.3626 21.4434 3.34297L20.6621 1.78047C20.5965 1.64727 20.461 1.5628 20.3125 1.56251H16.257L15.9766 0.997272C15.9101 0.864215 15.7738 0.780426 15.625 0.781256H9.375C9.22695 0.781207 9.09155 0.86485 9.02539 0.997272L8.24414 2.55977C8.23335 2.58155 8.22148 2.61065 8.21328 2.64615C8.20537 2.68038 8.20317 2.71065 8.20312 2.73438ZM19.9219 6.25001V3.90626H20.7031V6.25001H19.9219ZM16.7969 3.90626H19.1406V6.25001H16.7969V3.90626ZM16.7559 2.55977L16.6477 2.34376H20.0711L20.4617 3.12501H16.7969V2.73438C16.7959 2.70767 16.7924 2.67462 16.7832 2.63775C16.7754 2.60718 16.7655 2.58106 16.7559 2.55977ZM9.61641 1.56251H15.3836L15.625 2.04532V2.34376H9.22578L9.61641 1.56251ZM14.4531 3.12501V6.25001H10.5469V3.12501H14.4531ZM8.98438 6.25001V3.12501H9.76562V6.25001H8.98438ZM15.2344 6.25001V3.12501H16.0156V6.25001H15.2344ZM21.0938 7.03126H23.4375V22.466L22.2656 20.591V12.0863H21.4844V20.591L20.3125 22.466V7.03126H21.0938ZM20.625 23.4375L21.875 21.4402L23.125 23.4375H20.625Z" fill="#302929"/>
<path d="M21.4844 8.98438H22.2656V11.3281H21.4844V8.98438Z" fill="#302929"/>
</g>
<defs>
<clipPath id="clip0_606_975">
<rect width="25" height="25" fill="white"/>
</clipPath>
</defs>
</svg>
