<svg width="26" height="26" viewBox="0 0 26 26" fill="none" xmlns="http://www.w3.org/2000/svg">
<g clip-path="url(#clip0_606_1024)">
<path d="M14.8936 20.1238C14.8936 20.1238 14.6092 21.0862 13.6337 20.8472C12.6582 20.6082 10.3477 20.0519 10.3477 20.0519" stroke="#302929" stroke-miterlimit="10" stroke-linecap="round" stroke-linejoin="round"/>
<path d="M14.8936 20.1238C14.8936 20.1238 14.6092 21.0862 13.6337 20.8472C12.6582 20.6082 10.3477 20.0519 10.3477 20.0519" stroke="#302929" stroke-miterlimit="10" stroke-linecap="round" stroke-linejoin="round"/>
<path d="M17.7422 3.4397V2.45022C17.7422 1.30732 16.8158 0.380859 15.6729 0.380859C14.53 0.380859 13.6035 1.30732 13.6035 2.45022V5.36747L14.4816 6.00159C14.6833 6.14723 14.9556 6.14723 15.1573 6.00159L16.5686 4.9824C16.6643 4.91328 16.7732 4.87149 16.8848 4.8563C16.9852 4.28206 17.2992 3.78161 17.7422 3.4397Z" stroke="#302929" stroke-miterlimit="10" stroke-linecap="round" stroke-linejoin="round"/>
<path d="M17.3907 4.98234L18.8017 6.00142C19.0034 6.14711 19.2757 6.14711 19.4775 6.00142L20.8885 4.98234C21.0379 4.87438 21.2193 4.83259 21.3937 4.85615C21.2058 3.78091 20.2683 2.96338 19.1392 2.96338C18.0102 2.96338 17.0727 3.78096 16.8848 4.8562C17.0594 4.83248 17.241 4.87428 17.3907 4.98234Z" stroke="#302929" stroke-miterlimit="10" stroke-linecap="round" stroke-linejoin="round"/>
<path d="M15.2949 3.18347H16.0512" stroke="#302929" stroke-miterlimit="10" stroke-linecap="round" stroke-linejoin="round"/>
<path d="M21.3929 4.8562C21.5047 4.87133 21.6139 4.91313 21.7098 4.98239L23.1208 6.00148C23.3225 6.14717 23.5949 6.14717 23.7966 6.00148L25.0878 5.06882C25.1908 4.49128 24.9364 3.89409 24.4288 3.57427C24.2831 3.4824 24.2031 3.31599 24.2249 3.14511C24.3004 2.55234 24.0059 1.9492 23.4443 1.65883C22.8826 1.36851 22.2203 1.47708 21.7804 1.88136C21.6561 1.99562 21.4766 2.03238 21.3211 1.96687C20.6292 1.67564 19.8096 1.95773 19.4541 2.64547C19.3993 2.75135 19.3591 2.86089 19.332 2.97179C20.3732 3.05909 21.2158 3.84311 21.3929 4.8562Z" stroke="#302929" stroke-miterlimit="10" stroke-linecap="round" stroke-linejoin="round"/>
<path d="M7.0188 17.0751C6.43176 17.1524 6.00138 17.299 5.3721 17.5807C4.71041 17.8768 4.08204 18.2355 3.49332 18.6494C3.10814 18.9201 2.68076 19.1251 2.22678 19.25L0.681944 19.6747C0.504107 19.7237 0.380859 19.8853 0.380859 20.0698V25.2091C0.380859 25.4959 0.667878 25.6939 0.935955 25.5921L6.30658 23.5531C7.48391 23.1694 8.71821 23.1306 9.70667 23.525L11.8059 24.3631C12.2648 24.5213 13.3189 24.7675 14.4127 24.2068C14.4132 24.2066 14.4136 24.2064 14.4136 24.2064C14.6789 24.089 21.4314 21.1021 21.742 20.9648C21.964 20.851 23.0797 20.1816 22.5797 19.045C22.0003 17.8351 20.6668 18.407 20.5548 18.4489L14.893 20.1239C14.893 20.1239 15.2806 18.9851 14.1069 18.5167C10.8591 17.2202 10.467 16.9985 9.64279 16.9855L9.64269 16.9854C9.33094 16.9864 9.05062 16.9876 8.79611 16.99" stroke="#302929" stroke-miterlimit="10" stroke-linecap="round" stroke-linejoin="round"/>
<path d="M25.6185 10.1288V5.0755C25.6185 4.91284 25.4343 4.81864 25.3024 4.91386L23.7965 6.0015C23.5948 6.1472 23.3224 6.1472 23.1207 6.0015L21.7097 4.98241C21.4644 4.80519 21.133 4.80519 20.8876 4.98241L19.4766 6.0015C19.2749 6.1472 19.0025 6.1472 18.8008 6.0015L17.3898 4.98241C17.1444 4.80519 16.8131 4.80519 16.5676 4.98236L15.1563 6.00155C14.9546 6.1472 14.6823 6.1472 14.4806 6.00155L12.9743 4.91376C12.8424 4.81854 12.6582 4.91274 12.6582 5.0754V15.7161C12.6582 16.1998 13.0503 16.5919 13.534 16.5919H24.7427C25.2264 16.5919 25.6185 16.1998 25.6185 15.7161V11.9061" stroke="#302929" stroke-miterlimit="10" stroke-linecap="round" stroke-linejoin="round"/>
<path d="M4.30664 3.86755H9.48633" stroke="#302929" stroke-miterlimit="10" stroke-linecap="round" stroke-linejoin="round"/>
<path d="M5.80859 6.2887H9.48648" stroke="#302929" stroke-miterlimit="10" stroke-linecap="round" stroke-linejoin="round"/>
<path d="M6.61719 8.70996H9.48633" stroke="#302929" stroke-miterlimit="10" stroke-linecap="round" stroke-linejoin="round"/>
<path d="M7.25195 11.1312H9.48633" stroke="#302929" stroke-miterlimit="10" stroke-linecap="round" stroke-linejoin="round"/>
</g>
<defs>
<clipPath id="clip0_606_1024">
<rect width="26" height="26" fill="white"/>
</clipPath>
</defs>
</svg>
