<svg width="34" height="34" viewBox="0 0 34 34" fill="none" xmlns="http://www.w3.org/2000/svg">
<path d="M11.5748 3.91004C13.2962 3.20163 15.1392 2.83591 17.0007 2.83337C18.8565 2.83337 20.6982 3.20171 22.4265 3.91004C24.1407 4.61837 25.699 5.66671 27.0165 6.98421C28.334 8.30171 29.3823 9.86004 30.0907 11.5742C30.799 13.3025 31.1673 15.1442 31.1673 17C31.1673 20.7542 29.6798 24.3667 27.0165 27.0159C25.7025 28.3331 24.1413 29.3778 22.4225 30.0902C20.7037 30.8025 18.8612 31.1683 17.0007 31.1667C15.1392 31.1642 13.2962 30.7984 11.5748 30.09C9.85747 29.3773 8.29767 28.3326 6.98482 27.0159C5.6676 25.7019 4.62285 24.1407 3.91054 22.4219C3.19823 20.7031 2.83238 18.8606 2.83399 17C2.83399 13.2459 4.32149 9.63337 6.98482 6.98421C8.30232 5.66671 9.86066 4.61837 11.5748 3.91004ZM17.0007 24.0834L19.2107 19.2384L24.084 17L19.2107 14.79L17.0007 9.91671L14.7765 14.79L9.91732 17L14.7765 19.2384L17.0007 24.0834Z" fill="black"/>
</svg>
