<svg width="35" height="35" viewBox="0 0 35 35" fill="none" xmlns="http://www.w3.org/2000/svg">
<path d="M17.1515 4.01038H5.4681C5.08132 4.01038 4.71039 4.16402 4.4369 4.43751C4.16341 4.711 4.00977 5.08194 4.00977 5.46871V29.5312C4.00977 29.918 4.16341 30.2889 4.4369 30.5624C4.71039 30.8359 5.08132 30.9895 5.4681 30.9895H29.5306C29.9174 30.9895 30.2883 30.8359 30.5618 30.5624C30.8353 30.2889 30.9889 29.918 30.9889 29.5312V5.46871C30.9889 5.08194 30.8353 4.711 30.5618 4.43751C30.2883 4.16402 29.9174 4.01038 29.5306 4.01038H25.9227" stroke="#8EC038" stroke-linecap="round" stroke-linejoin="round"/>
<path d="M25.3671 18.2714L30.9889 17.4052M4.00977 21.5629L18.4618 19.3353M13.0573 20.1687L10.3302 4.01039M21.5375 2.45508C19.6899 2.45508 17.9179 3.18904 16.6114 4.49551C15.305 5.80197 14.571 7.57392 14.571 9.42154C14.571 14.8742 19.9034 21.4455 21.2845 23.057C21.3242 23.1034 21.3736 23.1406 21.4292 23.1661C21.4849 23.1915 21.5453 23.2045 21.6065 23.2041C21.6676 23.2038 21.728 23.1901 21.7833 23.1641C21.8386 23.138 21.8876 23.1002 21.9268 23.0533C23.2846 21.4375 28.5039 14.8706 28.5039 9.42227C28.504 8.50736 28.3239 7.60139 27.9739 6.75609C27.6238 5.9108 27.1107 5.14274 26.4638 4.49576C25.8169 3.84879 25.0488 3.33558 24.2036 2.98544C23.3583 2.6353 22.4524 2.45508 21.5375 2.45508ZM21.5375 12.0254C21.0226 12.0254 20.5193 11.8727 20.0913 11.5867C19.6632 11.3006 19.3295 10.8941 19.1325 10.4184C18.9355 9.94278 18.8839 9.41938 18.9844 8.91442C19.0848 8.40946 19.3327 7.94563 19.6968 7.58158C20.0608 7.21752 20.5247 6.9696 21.0296 6.86916C21.5346 6.76872 22.058 6.82027 22.5336 7.01729C23.0093 7.21432 23.4159 7.54796 23.7019 7.97605C23.9879 8.40413 24.1406 8.90742 24.1406 9.42227C24.1406 9.76411 24.0733 10.1026 23.9424 10.4184C23.8116 10.7343 23.6199 11.0212 23.3782 11.263C23.1364 11.5047 22.8495 11.6964 22.5336 11.8272C22.2178 11.9581 21.8793 12.0254 21.5375 12.0254Z" stroke="#8EC038" stroke-linecap="round" stroke-linejoin="round"/>
</svg>
