<svg width="19" height="15" viewBox="0 0 19 15" fill="none" xmlns="http://www.w3.org/2000/svg">
<path d="M1.9 1.66667H4.75L6.0935 0.488155C6.44982 0.175594 6.93309 0 7.43701 0H11.563C12.0669 0 12.5502 0.175595 12.9065 0.488155L14.25 1.66667H17.1C17.6039 1.66667 18.0872 1.84226 18.4435 2.15482C18.7998 2.46738 19 2.89131 19 3.33333V13.3333C19 13.7754 18.7998 14.1993 18.4435 14.5118C18.0872 14.8244 17.6039 15 17.1 15H1.9C1.39609 15 0.912816 14.8244 0.556497 14.5118C0.200178 14.1993 0 13.7754 0 13.3333V3.33333C0 2.89131 0.200178 2.46738 0.556497 2.15482C0.912816 1.84226 1.39609 1.66667 1.9 1.66667ZM9.5 4.16667C8.24022 4.16667 7.03204 4.60565 6.14124 5.38705C5.25044 6.16846 4.75 7.22826 4.75 8.33333C4.75 9.4384 5.25044 10.4982 6.14124 11.2796C7.03204 12.061 8.24022 12.5 9.5 12.5C10.7598 12.5 11.968 12.061 12.8588 11.2796C13.7496 10.4982 14.25 9.4384 14.25 8.33333C14.25 7.22826 13.7496 6.16846 12.8588 5.38705C11.968 4.60565 10.7598 4.16667 9.5 4.16667ZM9.5 5.83333C10.2559 5.83333 10.9808 6.09673 11.5153 6.56557C12.0497 7.03441 12.35 7.67029 12.35 8.33333C12.35 8.99637 12.0497 9.63226 11.5153 10.1011C10.9808 10.5699 10.2559 10.8333 9.5 10.8333C8.74413 10.8333 8.01922 10.5699 7.48475 10.1011C6.95027 9.63226 6.65 8.99637 6.65 8.33333C6.65 7.67029 6.95027 7.03441 7.48475 6.56557C8.01922 6.09673 8.74413 5.83333 9.5 5.83333Z" fill="#637381"/>
</svg>
