<svg width="26" height="26" viewBox="0 0 26 26" fill="none" xmlns="http://www.w3.org/2000/svg">
<g clip-path="url(#clip0_606_1041)">
<path d="M26 3.16958V22.8304C26 24.3922 24.5197 25.6628 22.7002 25.6628H15.736C15.5205 25.6628 15.3138 25.5772 15.1615 25.4248C15.0091 25.2724 14.9235 25.0658 14.9235 24.8503C14.9235 24.6348 15.0091 24.4281 15.1615 24.2758C15.3138 24.1234 15.5205 24.0378 15.736 24.0378H22.7002C23.608 24.0378 24.375 23.4849 24.375 22.8304V3.16958C24.375 2.51512 23.6082 1.96216 22.7002 1.96216H15.736C15.5205 1.96216 15.3138 1.87656 15.1615 1.72418C15.0091 1.57181 14.9235 1.36515 14.9235 1.14966C14.9235 0.93417 15.0091 0.727507 15.1615 0.575134C15.3138 0.422761 15.5205 0.337158 15.736 0.337158H22.7002C24.5197 0.337158 26 1.60781 26 3.16958ZM2.72232 13.8125H18.1682C18.3837 13.8125 18.5903 13.7269 18.7427 13.5745C18.8951 13.4221 18.9807 13.2155 18.9807 13C18.9807 12.7845 18.8951 12.5778 18.7427 12.4254C18.5903 12.2731 18.3837 12.1875 18.1682 12.1875H2.72232L7.77155 6.94177C7.92099 6.78651 8.00264 6.57826 7.99853 6.3628C7.99442 6.14735 7.90489 5.94236 7.74964 5.79292C7.59438 5.64348 7.38612 5.56183 7.17067 5.56594C6.95522 5.57005 6.75023 5.65958 6.60079 5.81483L0.227129 12.4363C0.0814063 12.5877 0 12.7896 0 12.9998C0 13.2099 0.0814063 13.4118 0.227129 13.5632L6.60079 20.185C6.67445 20.2631 6.76289 20.3259 6.86099 20.3697C6.95909 20.4135 7.06489 20.4374 7.17229 20.44C7.27968 20.4427 7.38653 20.424 7.48664 20.385C7.58676 20.3461 7.67817 20.2877 7.75557 20.2132C7.83297 20.1387 7.89483 20.0496 7.93757 19.951C7.98031 19.8525 8.00308 19.7464 8.00457 19.639C8.00605 19.5316 7.98622 19.425 7.94623 19.3253C7.90623 19.2256 7.84686 19.1348 7.77155 19.0582L2.72232 13.8125Z" fill="#302929"/>
</g>
<defs>
<clipPath id="clip0_606_1041">
<rect width="26" height="26" fill="white"/>
</clipPath>
</defs>
</svg>
