<svg width="10" height="17" viewBox="0 0 10 17" fill="none" xmlns="http://www.w3.org/2000/svg">
<path fill-rule="evenodd" clip-rule="evenodd" d="M5 0.219238C7.76142 0.219238 10 2.4239 10 5.14348C10 5.76678 9.80302 6.51902 9.40906 7.40021L9.2781 7.68276C9.11768 8.01741 8.93052 8.36956 8.71663 8.73921L8.52674 9.06034C8.49401 9.11458 8.46072 9.16917 8.42689 9.22412L8.21736 9.55811C8.18135 9.61449 8.14479 9.67122 8.10768 9.72832L7.87851 10.0752L7.63624 10.4306C7.59477 10.4905 7.55276 10.5508 7.5102 10.6115L7.24828 10.9798C7.20354 11.0419 7.15825 11.1043 7.11242 11.1671L6.83086 11.5483L6.53621 11.938C6.48601 12.0036 6.43527 12.0697 6.38397 12.136L6.06968 12.5386C5.96273 12.6742 5.8536 12.8113 5.74229 12.9498C5.69916 13.0034 5.65034 13.0522 5.59669 13.0954C5.20723 13.4084 4.64673 13.3652 4.30911 13.0087L4.25771 12.9498L4.09238 12.7431L3.77154 12.3363C3.66677 12.2021 3.56419 12.0693 3.46379 11.938L3.16914 11.5483L2.88758 11.1671C2.84175 11.1043 2.79646 11.0419 2.75172 10.9798L2.4898 10.6115C2.44724 10.5508 2.40523 10.4905 2.36376 10.4306L2.12149 10.0752L1.89232 9.72832C1.85521 9.67122 1.81865 9.61449 1.78264 9.55811L1.57311 9.22412C1.53928 9.16917 1.506 9.11458 1.47326 9.06034L1.28337 8.73921C1.06948 8.36956 0.882317 8.01741 0.721896 7.68276L0.59094 7.40021C0.19698 6.51902 0 5.76678 0 5.14348C0 2.4239 2.23858 0.219238 5 0.219238ZM4.99963 0.933738C2.63027 0.933738 0.713913 2.82106 0.713913 5.14369C0.713913 5.79973 0.990049 6.66678 1.54435 7.73348L1.69526 8.01627L1.8588 8.30807C1.88711 8.35745 1.91595 8.40721 1.94531 8.45734L2.12781 8.76257C2.22222 8.91742 2.32137 9.07561 2.42527 9.2371L2.6394 9.56451L2.8662 9.9007C2.90506 9.95746 2.94444 10.0146 2.98436 10.0721L3.23017 10.4214L3.48868 10.7793C3.53282 10.8397 3.57749 10.9005 3.62269 10.9616L3.90025 11.3325L4.19051 11.7119C4.23994 11.7759 4.28991 11.8402 4.3404 11.9049L4.64974 12.2971L4.81406 12.5024C4.89644 12.6049 5.04631 12.6212 5.1488 12.5388C5.16221 12.5281 5.17442 12.5159 5.1852 12.5024L5.50124 12.1056L5.80454 11.7173L6.09512 11.3375L6.37298 10.9662L6.63813 10.6036C6.68126 10.5439 6.72387 10.4846 6.76594 10.4256L7.01204 10.076L7.24545 9.7352C7.28329 9.67912 7.32061 9.62341 7.3574 9.56807L7.57178 9.24043L7.7735 8.92162L7.96255 8.61171C8.02346 8.5099 8.08226 8.40957 8.13894 8.31073L8.30269 8.01873C8.95862 6.82081 9.28534 5.85775 9.28534 5.14369C9.28534 2.82106 7.36898 0.933738 4.99963 0.933738ZM5.0007 3.40058C6.00485 3.40058 6.81888 4.21461 6.81888 5.21876C6.81888 6.22292 6.00485 7.03694 5.0007 7.03694C3.99654 7.03694 3.18251 6.22292 3.18251 5.21876C3.18251 4.21461 3.99654 3.40058 5.0007 3.40058ZM5.00032 4.11508C4.39066 4.11508 3.89643 4.60931 3.89643 5.21897C3.89643 5.82864 4.39066 6.32287 5.00032 6.32287C5.60999 6.32287 6.10422 5.82864 6.10422 5.21897C6.10422 4.60931 5.60999 4.11508 5.00032 4.11508ZM5.11304 14.6666C5.96828 14.6666 6.76282 14.4281 7.27648 14.0187C7.64362 13.726 7.85655 13.3537 7.85655 12.9458C7.85655 12.7486 7.69665 12.5887 7.4994 12.5887C7.31859 12.5887 7.16917 12.723 7.14552 12.8973L7.14226 12.9458C7.14226 13.1153 7.04039 13.2934 6.83124 13.4601C6.45394 13.7609 5.81617 13.9523 5.11304 13.9523C4.41658 13.9523 3.78397 13.7646 3.40494 13.4681C3.21312 13.3181 3.10859 13.1582 3.08773 13.0035L3.08382 12.9458C3.08382 12.7486 2.92392 12.5887 2.72668 12.5887C2.52943 12.5887 2.36953 12.7486 2.36953 12.9458C2.36953 13.3596 2.58846 13.7363 2.9649 14.0308C3.47913 14.4329 4.26642 14.6666 5.11304 14.6666ZM8.74813 15.009C7.89606 15.6515 6.55912 16.031 5.11356 16.031C3.68244 16.031 2.35744 15.659 1.50399 15.0276C0.898371 14.5796 0.551873 14.0155 0.551873 13.4011C0.551873 13.2039 0.711772 13.044 0.909016 13.044C1.10626 13.044 1.26616 13.2039 1.26616 13.4011C1.26616 13.7635 1.49096 14.1295 1.9288 14.4534C2.6492 14.9864 3.82594 15.3167 5.11356 15.3167C6.41371 15.3167 7.60036 14.9798 8.31808 14.4386C8.74318 14.1181 8.96096 13.7579 8.96096 13.4011C8.96096 13.2039 9.12086 13.044 9.31811 13.044C9.51535 13.044 9.67525 13.2039 9.67525 13.4011C9.67525 14.0068 9.33838 14.5639 8.74813 15.009Z" fill="white"/>
</svg>
