<svg width="26" height="26" viewBox="0 0 26 26" fill="none" xmlns="http://www.w3.org/2000/svg">
<path d="M2.16667 7.58329V7.04163C2.02301 7.04163 1.88523 7.09869 1.78365 7.20028C1.68207 7.30186 1.625 7.43963 1.625 7.58329H2.16667ZM14.0833 7.58329H14.625C14.625 7.43963 14.5679 7.30186 14.4664 7.20028C14.3648 7.09869 14.227 7.04163 14.0833 7.04163V7.58329ZM14.0833 9.74996V9.20829C13.9397 9.20829 13.8019 9.26536 13.7003 9.36694C13.5987 9.46852 13.5417 9.6063 13.5417 9.74996H14.0833ZM2.16667 8.12496H14.0833V7.04163H2.16667V8.12496ZM13.5417 7.58329V20.5833H14.625V7.58329H13.5417ZM2.70833 18.4166V7.58329H1.625V18.4166H2.70833ZM14.0833 10.2916H19.5V9.20829H14.0833V10.2916ZM23.2917 14.0833V18.4166H24.375V14.0833H23.2917ZM14.625 20.5833V9.74996H13.5417V20.5833H14.625ZM20.6483 21.7316C20.3436 22.0359 19.9306 22.2069 19.5 22.2069C19.0694 22.2069 18.6564 22.0359 18.3517 21.7316L17.5847 22.4986C17.8362 22.7502 18.1348 22.9498 18.4634 23.0859C18.792 23.2221 19.1443 23.2921 19.5 23.2921C19.8557 23.2921 20.208 23.2221 20.5366 23.0859C20.8652 22.9498 21.1638 22.7502 21.4153 22.4986L20.6494 21.7327L20.6483 21.7316ZM18.3517 19.435C18.6564 19.1306 19.0694 18.9597 19.5 18.9597C19.9306 18.9597 20.3436 19.1306 20.6483 19.435L21.4153 18.668C21.1638 18.4164 20.8652 18.2168 20.5366 18.0807C20.208 17.9445 19.8557 17.8745 19.5 17.8745C19.1443 17.8745 18.792 17.9445 18.4634 18.0807C18.1348 18.2168 17.8362 18.4164 17.5847 18.668L18.3506 19.4339L18.3517 19.435ZM7.64833 21.7316C7.34365 22.0359 6.93063 22.2069 6.5 22.2069C6.06937 22.2069 5.65636 22.0359 5.35167 21.7316L4.58467 22.4986C4.83617 22.7502 5.13476 22.9498 5.4634 23.0859C5.79204 23.2221 6.14428 23.2921 6.5 23.2921C6.85572 23.2921 7.20796 23.2221 7.5366 23.0859C7.86524 22.9498 8.16383 22.7502 8.41533 22.4986L7.64942 21.7327L7.64833 21.7316ZM5.35167 19.435C5.65636 19.1306 6.06937 18.9597 6.5 18.9597C6.93063 18.9597 7.34365 19.1306 7.64833 19.435L8.41533 18.668C8.16383 18.4164 7.86524 18.2168 7.5366 18.0807C7.20796 17.9445 6.85572 17.8745 6.5 17.8745C6.14428 17.8745 5.79204 17.9445 5.4634 18.0807C5.13476 18.2168 4.83617 18.4164 4.58467 18.668L5.35058 19.4339L5.35167 19.435ZM20.6483 19.435C20.9668 19.7513 21.125 20.1662 21.125 20.5833H22.2083C22.2083 19.891 21.944 19.1966 21.4153 18.668L20.6494 19.4339L20.6483 19.435ZM21.125 20.5833C21.125 21.0004 20.9668 21.4153 20.6483 21.7316L21.4153 22.4986C21.6671 22.2473 21.8668 21.9487 22.0028 21.62C22.1389 21.2914 22.2088 20.939 22.2083 20.5833H21.125ZM17.3333 20.0416H14.0833V21.125H17.3333V20.0416ZM18.3517 21.7316C18.2004 21.5811 18.0805 21.4021 17.9987 21.2051C17.9169 21.008 17.8748 20.7967 17.875 20.5833H16.7917C16.7917 21.2755 17.056 21.97 17.5847 22.4986L18.3506 21.7327L18.3517 21.7316ZM17.875 20.5833C17.875 20.1662 18.0332 19.7513 18.3517 19.435L17.5847 18.668C17.3329 18.9193 17.1332 19.2179 16.9972 19.5465C16.8611 19.8752 16.7912 20.2276 16.7917 20.5833H17.875ZM5.35167 21.7316C5.20044 21.5811 5.08047 21.4021 4.99867 21.2051C4.91686 21.008 4.87483 20.7967 4.875 20.5833H3.79167C3.79167 21.2755 4.056 21.97 4.58467 22.4986L5.35058 21.7327L5.35167 21.7316ZM4.875 20.5833C4.875 20.1662 5.03317 19.7513 5.35167 19.435L4.58467 18.668C4.3329 18.9193 4.13325 19.2179 3.99717 19.5465C3.86108 19.8752 3.79125 20.2276 3.79167 20.5833H4.875ZM14.0833 20.0416H8.66667V21.125H14.0833V20.0416ZM7.64833 19.435C7.96683 19.7513 8.125 20.1662 8.125 20.5833H9.20833C9.20833 19.891 8.944 19.1966 8.41533 18.668L7.64942 19.4339L7.64833 19.435ZM8.125 20.5833C8.125 21.0004 7.96683 21.4153 7.64833 21.7316L8.41533 22.4986C8.6671 22.2473 8.86675 21.9487 9.00284 21.62C9.13892 21.2914 9.20875 20.939 9.20833 20.5833H8.125ZM23.2917 18.4166C23.2917 18.8476 23.1205 19.2609 22.8157 19.5657C22.511 19.8704 22.0976 20.0416 21.6667 20.0416V21.125C22.385 21.125 23.0738 20.8396 23.5817 20.3317C24.0897 19.8238 24.375 19.1349 24.375 18.4166H23.2917ZM19.5 10.2916C20.5056 10.2916 21.47 10.6911 22.1811 11.4022C22.8922 12.1133 23.2917 13.0777 23.2917 14.0833H24.375C24.375 12.7904 23.8614 11.5504 22.9471 10.6361C22.0329 9.72191 20.7929 9.20829 19.5 9.20829V10.2916ZM1.625 18.4166C1.625 19.1349 1.91034 19.8238 2.41825 20.3317C2.92616 20.8396 3.61504 21.125 4.33333 21.125V20.0416C3.90236 20.0416 3.48903 19.8704 3.18428 19.5657C2.87954 19.2609 2.70833 18.8476 2.70833 18.4166H1.625Z" fill="white"/>
<path d="M8.12435 6.5C8.12435 5.63805 7.78194 4.8114 7.17245 4.2019C6.56295 3.59241 5.7363 3.25 4.87435 3.25C4.58703 3.25 4.31148 3.36414 4.10832 3.5673C3.90515 3.77047 3.79102 4.04602 3.79102 4.33333C3.79102 5.19529 4.13343 6.02194 4.74292 6.63143C5.35241 7.24092 6.17906 7.58333 7.04102 7.58333H8.12435M8.12435 6.5V7.58333M8.12435 6.5C8.12435 5.63805 8.46676 4.8114 9.07625 4.2019C9.68574 3.59241 10.5124 3.25 11.3743 3.25C11.6617 3.25 11.9372 3.36414 12.1404 3.5673C12.3435 3.77047 12.4577 4.04602 12.4577 4.33333C12.4577 5.19529 12.1153 6.02194 11.5058 6.63143C10.8963 7.24092 10.0696 7.58333 9.20768 7.58333H8.12435" stroke="white" stroke-linejoin="round"/>
</svg>
