<svg width="48" height="48" viewBox="0 0 48 48" fill="none" xmlns="http://www.w3.org/2000/svg">
<path d="M38.031 36.9693C38.1718 37.11 38.2508 37.3009 38.2508 37.4999C38.2508 37.699 38.1718 37.8898 38.031 38.0306C37.8903 38.1713 37.6994 38.2503 37.5004 38.2503C37.3014 38.2503 37.1105 38.1713 36.9698 38.0306L24.0004 25.0612L11.031 38.0306C10.8903 38.1713 10.6994 38.2503 10.5004 38.2503C10.3014 38.2503 10.1105 38.1713 9.96979 38.0306C9.82906 37.8898 9.75 37.699 9.75 37.4999C9.75 37.3009 9.82906 37.11 9.96979 36.9693L22.9392 23.9999L9.96979 11.0306C9.82906 10.8898 9.75 10.699 9.75 10.4999C9.75 10.3009 9.82906 10.11 9.96979 9.9693C10.1105 9.82857 10.3014 9.74951 10.5004 9.74951C10.6994 9.74951 10.8903 9.82857 11.031 9.9693L24.0004 22.9387L36.9698 9.9693C37.0395 9.89962 37.1222 9.84435 37.2132 9.80663C37.3043 9.76892 37.4019 9.74951 37.5004 9.74951C37.599 9.74951 37.6965 9.76892 37.7876 9.80663C37.8786 9.84435 37.9614 9.89962 38.031 9.9693C38.1007 10.039 38.156 10.1217 38.1937 10.2128C38.2314 10.3038 38.2508 10.4014 38.2508 10.4999C38.2508 10.5985 38.2314 10.6961 38.1937 10.7871C38.156 10.8781 38.1007 10.9609 38.031 11.0306L25.0617 23.9999L38.031 36.9693Z" fill="black"/>
</svg>
